<svg width="272" height="272" viewBox="0 0 272 272" fill="none" xmlns="http://www.w3.org/2000/svg"><path d="M249.94 77.62A128.23 128.23 0 1021.6 194.38 128.23 128.23 0 00249.94 77.62zm-78 116.11a67.85 67.85 0 01-71.78 0 68.4 68.4 0 01-21.84-21.84 67.85 67.85 0 010-71.78 68.41 68.41 0 0121.84-21.84 67.85 67.85 0 0171.78 0 68.4 68.4 0 0121.84 21.84 67.85 67.85 0 01-21.89 93.62h.05z" fill="#EFEFEF"/><path d="M194.38 22.06l-22.49 56.21a67.85 67.85 0 00-71.78 0L77.62 22.06a128.23 128.23 0 01116.76 0zM194.38 249.94a128.23 128.23 0 01-116.76 0l22.49-56.21a67.85 67.85 0 0071.78 0l22.49 56.21z" fill="#CD2A39"/><path d="M68 136a67.54 67.54 0 0010.27 35.89l-56.21 22.49a128.23 128.23 0 010-116.76l56.21 22.49A67.54 67.54 0 0068 136zM264 136c.03 20.3-4.79 40.32-14.06 58.38l-56.21-22.49a67.85 67.85 0 000-71.78l56.21-22.49A127.43 127.43 0 01264 136z" fill="#139248"/></svg>